<?xml version="1.0" encoding="iso-8859-1"?>
<!-- Generator: Adobe Illustrator 19.0.0, SVG Export Plug-In . SVG Version: 6.00 Build 0)  -->
<svg version="1.1" id="Layer_1" xmlns="http://www.w3.org/2000/svg" xmlns:xlink="http://www.w3.org/1999/xlink" x="0px" y="0px"
	 viewBox="0 0 454 454" style="enable-background:new 0 0 454 454;" xml:space="preserve">
<g>
	<polygon style="fill:#666666;" points="269.53,412.088 184.47,412.088 195.15,364.088 198.49,349.088 255.5,349.088 
		258.84,364.088 	"/>
	<path style="fill:#B3B3B3;" d="M454,51.608v280.28c0,9.5-7.7,17.2-17.2,17.2H255.5h-57.01H17.2c-9.5,0-17.2-7.7-17.2-17.2V51.608
		c0-9.5,7.7-17.2,17.2-17.2h419.6C446.3,34.408,454,42.108,454,51.608z M431,326.088V91.058v-33.65H23v33.65v235.03H431z"/>
	<path style="fill:#4D4D4D;" d="M255.5,349.088h-57.01l-3.34,15h63.69L255.5,349.088z"/>
	<rect x="23" y="57.408" style="fill:#88C5FC;" width="408" height="33.65"/>
	<rect x="23" y="91.058" style="fill:#E6E6E6;" width="408" height="235.03"/>
	<g style="opacity:0.23;">
		<circle style="fill:#B3B3B3;" cx="99.818" cy="203.66" r="52.101"/>
		<circle style="fill:#B3B3B3;" cx="225.181" cy="203.66" r="52.101"/>
		<circle style="fill:#B3B3B3;" cx="350.545" cy="203.66" r="52.101"/>
	</g>
	<rect x="145.603" y="404.592" style="fill:#B3B3B3;" width="162.788" height="15"/>
	<circle style="fill:#F7E88B;" cx="99.818" cy="195.446" r="52.101"/>
	<path style="fill:#4D4D4D;" d="M76.743,190.5c-1.97,0-3.9-0.8-5.3-2.2c-1.4-1.39-2.2-3.33-2.2-5.3s0.8-3.91,2.2-5.3
		c1.4-1.4,3.33-2.2,5.3-2.2c1.98,0,3.91,0.8,5.31,2.2c1.39,1.39,2.19,3.33,2.19,5.3s-0.8,3.91-2.19,5.3
		C80.653,189.7,78.723,190.5,76.743,190.5z"/>
	<path style="fill:#4D4D4D;" d="M122.883,190.5c-1.97,0-3.9-0.8-5.3-2.2c-1.4-1.39-2.2-3.33-2.2-5.3c0-1.98,0.8-3.91,2.2-5.3
		c1.4-1.4,3.33-2.2,5.3-2.2c1.98,0,3.91,0.8,5.31,2.2c1.39,1.39,2.19,3.32,2.19,5.3s-0.8,3.91-2.19,5.3
		C126.793,189.7,124.863,190.5,122.883,190.5z"/>
	<path style="fill:#4D4D4D;" d="M99.818,218.246c-6.841,0-13.683-2.604-18.891-7.813c-1.367-1.367-1.367-3.583,0-4.95
		s3.583-1.367,4.95,0c7.689,7.688,20.196,7.687,27.884,0c1.367-1.367,3.583-1.367,4.95,0s1.367,3.583,0,4.95
		C113.501,215.642,106.659,218.246,99.818,218.246z"/>
	<circle style="fill:#88C5FC;" cx="225.181" cy="195.446" r="52.101"/>
	<path style="fill:#4D4D4D;" d="M202.113,190.5c-1.98,0-3.91-0.8-5.31-2.2c-1.39-1.39-2.19-3.33-2.19-5.3c0-1.98,0.8-3.91,2.19-5.3
		c1.4-1.4,3.33-2.2,5.31-2.2c1.97,0,3.91,0.8,5.3,2.2c1.4,1.39,2.2,3.32,2.2,5.3c0,1.97-0.8,3.91-2.2,5.3
		C206.023,189.7,204.083,190.5,202.113,190.5z"/>
	<path style="fill:#4D4D4D;" d="M248.253,190.5c-1.98,0-3.91-0.8-5.311-2.2c-1.39-1.39-2.189-3.33-2.189-5.3
		c0-1.98,0.8-3.91,2.189-5.3c1.4-1.4,3.33-2.2,5.311-2.2c1.97,0,3.91,0.8,5.3,2.2c1.4,1.39,2.2,3.33,2.2,5.3s-0.8,3.9-2.2,5.3
		C252.163,189.7,250.223,190.5,248.253,190.5z"/>
	<path style="fill:#4D4D4D;" d="M225.183,200.55c-7.87,0-14.26,6.4-14.26,14.26s6.39,14.26,14.26,14.26
		c7.86,0,14.26-6.4,14.26-14.26S233.043,200.55,225.183,200.55z"/>
	<path style="opacity:0.23;fill:#F2F2F2;enable-background:new    ;" d="M454,51.608v280.28c0,9.5-7.7,17.2-17.2,17.2H194.887
		l163.75-314.68H436.8C446.3,34.408,454,42.108,454,51.608z"/>
	<circle style="fill:#F9A18A;" cx="350.545" cy="195.446" r="52.101"/>
	<path style="fill:#4D4D4D;" d="M327.473,190.5c-1.97,0-3.91-0.8-5.3-2.2c-1.4-1.39-2.2-3.33-2.2-5.3s0.8-3.91,2.2-5.3
		c1.39-1.4,3.33-2.2,5.3-2.2c1.98,0,3.91,0.8,5.3,2.2c1.4,1.39,2.2,3.33,2.2,5.3s-0.8,3.9-2.2,5.3
		C331.383,189.7,329.453,190.5,327.473,190.5z"/>
	<path style="fill:#4D4D4D;" d="M373.612,190.5c-1.97,0-3.899-0.8-5.3-2.2c-1.399-1.39-2.2-3.33-2.2-5.3c0-1.98,0.801-3.91,2.2-5.3
		c1.391-1.4,3.33-2.2,5.3-2.2c1.98,0,3.91,0.8,5.301,2.2c1.399,1.39,2.199,3.32,2.199,5.3c0,1.97-0.8,3.9-2.199,5.3
		C377.523,189.7,375.583,190.5,373.612,190.5z"/>
	<path style="fill:#4D4D4D;" d="M366.961,214.704c-0.896,0-1.791-0.342-2.475-1.025c-3.725-3.724-8.676-5.775-13.942-5.775
		s-10.217,2.051-13.941,5.775c-1.367,1.367-3.582,1.367-4.949,0s-1.367-3.583,0-4.95c5.046-5.046,11.755-7.825,18.891-7.825
		c7.137,0,13.846,2.779,18.892,7.825c1.367,1.367,1.367,3.583,0,4.95C368.752,214.362,367.857,214.704,366.961,214.704z"/>
	<path style="opacity:0.23;fill:#F2F2F2;enable-background:new    ;" d="M119.68,34.408l-22.56,43.35l-11.83,22.74l-25.96,49.88
		l-12.39,23.82l-23.94,46l-23,44.2V51.608c0-9.5,7.7-17.2,17.2-17.2H119.68z"/>
</g>
<g>
</g>
<g>
</g>
<g>
</g>
<g>
</g>
<g>
</g>
<g>
</g>
<g>
</g>
<g>
</g>
<g>
</g>
<g>
</g>
<g>
</g>
<g>
</g>
<g>
</g>
<g>
</g>
<g>
</g>
</svg>
