<svg id="Layer_1" data-name="Layer 1" xmlns="http://www.w3.org/2000/svg" viewBox="0 0 512 512"><defs><style>.cls-1{fill:#141f38;}</style></defs><title>newspaper-2-outline</title><path class="cls-1" d="M431.31,41.31,391.92,1.92h0L390,0H78.77A39.43,39.43,0,0,0,39.38,39.38V472.62A39.43,39.43,0,0,0,78.77,512H433.23a39.43,39.43,0,0,0,39.38-39.38v-390Zm-37.46-18.9L450.2,78.77H393.85ZM78.77,498.87a26.28,26.28,0,0,1-26.26-26.26V39.38A26.28,26.28,0,0,1,78.77,13.13h23.18c-.24.27-.48.55-.71.83l-.38.44c-.31.37-.6.75-.9,1.14l-.38.51c-.31.42-.61.84-.9,1.26-.16.24-.31.48-.46.72s-.35.54-.52.82-.31.53-.47.8-.3.52-.45.78-.3.56-.44.84-.27.53-.41.79-.27.57-.41.86-.25.54-.37.81-.25.58-.37.88-.23.56-.33.84-.22.59-.32.88-.2.58-.3.88-.19.59-.28.89-.18.61-.26.92-.16.59-.23.88-.15.64-.22,1-.13.58-.19.87-.12.68-.18,1-.1.56-.14.85-.1.74-.14,1.11-.07.52-.09.79c0,.42-.07.84-.1,1.26,0,.22,0,.44,0,.66,0,.65,0,1.3,0,2V472.62c0,.65,0,1.31,0,2,0,.22,0,.44,0,.66,0,.42.06.85.1,1.27,0,.26.06.53.09.79s.09.74.14,1.11.09.56.14.85.12.68.18,1,.12.58.19.87.14.65.22,1,.15.59.23.88.17.61.26.92.18.59.28.89.19.59.3.88.21.59.32.88.22.56.33.84.24.59.37.88.24.54.37.81.27.58.41.86.27.53.41.79.29.56.44.84.3.52.45.78.31.54.47.8.35.54.52.81.31.48.47.72c.29.42.58.83.88,1.24l.4.54c.29.38.58.76.89,1.13l.38.44c.24.28.47.56.71.83Zm354.46,0H131.28A26.28,26.28,0,0,1,105,472.62V39.38a26.28,26.28,0,0,1,26.26-26.26H380.72V85.33a6.56,6.56,0,0,0,6.56,6.56h72.21V472.62A26.28,26.28,0,0,1,433.23,498.87Z"/><path class="cls-1" d="M170.67,433.23h91.9V367.59h-91.9Zm13.13-52.51h65.64V420.1H183.79Z"/><path class="cls-1" d="M177.23,91.9H295.38a6.56,6.56,0,0,0,0-13.13H177.23a6.56,6.56,0,0,0,0,13.13Z"/><path class="cls-1" d="M387.28,157.54H177.23a6.56,6.56,0,1,0,0,13.13H387.28a6.56,6.56,0,1,0,0-13.13Z"/><path class="cls-1" d="M177.23,223.18H256a6.56,6.56,0,0,0,0-13.13H177.23a6.56,6.56,0,0,0,0,13.13Z"/><path class="cls-1" d="M387.28,210.05H308.51a6.56,6.56,0,1,0,0,13.13h78.77a6.56,6.56,0,1,0,0-13.13Z"/><path class="cls-1" d="M177.23,275.69H256a6.56,6.56,0,0,0,0-13.13H177.23a6.56,6.56,0,0,0,0,13.13Z"/><path class="cls-1" d="M387.28,262.56H308.51a6.56,6.56,0,0,0,0,13.13h78.77a6.56,6.56,0,1,0,0-13.13Z"/><path class="cls-1" d="M387.28,315.08H177.23a6.56,6.56,0,1,0,0,13.13H387.28a6.56,6.56,0,1,0,0-13.13Z"/><path class="cls-1" d="M387.28,367.59H308.51a6.56,6.56,0,1,0,0,13.13h78.77a6.56,6.56,0,1,0,0-13.13Z"/><path class="cls-1" d="M387.28,420.1H308.51a6.56,6.56,0,0,0,0,13.13h78.77a6.56,6.56,0,1,0,0-13.13Z"/></svg>