<svg id="Layer_1" data-name="Layer 1" xmlns="http://www.w3.org/2000/svg" xmlns:xlink="http://www.w3.org/1999/xlink" viewBox="0 0 512 512"><defs><linearGradient id="linear-gradient" x1="256" y1="544.82" x2="256" y2="-32.82" gradientUnits="userSpaceOnUse"><stop offset="0" stop-color="#231f20"/><stop offset="1" stop-color="#58595b"/></linearGradient></defs><title>cut</title><path d="M201.13,374,256,302.47,310.87,374a92.91,92.91,0,0,0-11.45,44.84c0,51.47,41.59,93.2,92.87,93.2s92.89-41.73,92.89-93.2-41.59-93.18-92.89-93.18a92.63,92.63,0,0,0-30.53,5.15l-62.28-84.9L400.66,114.1C423.9,83.8,440.38,41.6,412,8c-11.2-13.27-17.57-10.22-32.77,10.47L256,186.56,132.7,18.48C117.52-2.21,111.15-5.27,99.95,8,71.62,41.6,88.1,83.8,111.34,114.1L212.52,245.86l-62.3,84.9a92.53,92.53,0,0,0-30.52-5.15c-51.29,0-92.89,41.71-92.89,93.18S68.41,512,119.71,512s92.85-41.73,92.85-93.2A92.89,92.89,0,0,0,201.13,374Zm-81.42-1.2a46,46,0,1,1-45.91,46,46,46,0,0,1,45.91-46Zm272.59,0a46,46,0,1,1-45.88,46,46,46,0,0,1,45.88-46ZM256,222.2a21.63,21.63,0,1,1-21.56,21.65A21.59,21.59,0,0,1,256,222.2Z" fill-rule="evenodd" fill="url(#linear-gradient)"/></svg>