<?xml version="1.0" encoding="iso-8859-1"?>
<!-- Generator: Adobe Illustrator 19.0.0, SVG Export Plug-In . SVG Version: 6.00 Build 0)  -->
<svg version="1.1" id="Layer_1" xmlns="http://www.w3.org/2000/svg" xmlns:xlink="http://www.w3.org/1999/xlink" x="0px" y="0px"
	 viewBox="0 0 512.002 512.002" style="enable-background:new 0 0 512.002 512.002;" xml:space="preserve">
<path style="fill:#48AEE2;" d="M271.534,345.285l-67.962-88.513c-7.846-10.22-23.272-10.219-31.117-0.001l-34.482,44.911
	c-41.943-11.566-86.601,2.329-113.896,37.883C-11.91,386.433-3.063,453.836,43.799,489.819
	c46.868,35.981,114.128,27.339,150.261-19.744c0.012-0.014,0.021-0.029,0.033-0.044l77.438-100.853
	C276.943,362.133,276.943,352.331,271.534,345.285z M137.826,454.656c-44.609,25.741-97.645-15.154-84.357-64.692
	c10.765-40.134,58.433-55.617,90.684-30.895C175.803,383.33,174.67,433.395,137.826,454.656z"/>
<path style="fill:#39A3DB;" d="M323.923,288.332L323.923,288.332c-6.097,0-11.847-2.835-15.559-7.671l-67.948-88.515
	c-5.409-7.045-5.409-16.845,0-23.89L363.695,7.671C370.275-0.9,382.59-2.554,391.2,4.056c27.006,20.735,44.317,50.738,48.745,84.484
	c8.84,67.125-30.953,101.579-100.465,192.12C335.769,285.497,330.019,288.332,323.923,288.332z"/>
<path style="fill:#74B8E5;" d="M487.862,339.567c-27.122-35.333-72.235-49.768-113.942-37.945
	c-84.729-110.357-45.952-59.862-225.68-293.951c-6.592-8.587-18.914-10.212-27.504-3.613c-55.746,42.8-66.479,122.645-23.461,178.68
	l219.993,286.542c0.089,0.115,0.191,0.212,0.281,0.326c35.93,47.336,103.544,56.333,150.578,20.212
	C515.095,453.755,523.934,386.546,487.862,339.567z M403.129,462.58c-32.161,0.003-62.308-27.989-57.408-65.272
	c8.184-62.334,96.459-68.059,112.745-7.343C468.906,428.887,438.341,462.578,403.129,462.58z"/>
<path style="fill:#48AEE2;" d="M487.862,339.567c-27.122-35.333-72.235-49.768-113.942-37.945
	c-60.788-79.176-58.008-75.559-117.953-153.639v241.453l61.301,79.844c0.089,0.115,0.191,0.213,0.281,0.326
	c35.93,47.337,103.544,56.333,150.578,20.214C515.095,453.755,523.934,386.546,487.862,339.567z M403.129,462.58
	c-32.161,0.003-62.308-27.989-57.408-65.272c8.184-62.334,96.459-68.059,112.745-7.343
	C468.906,428.887,438.341,462.578,403.129,462.58z"/>
<g>
</g>
<g>
</g>
<g>
</g>
<g>
</g>
<g>
</g>
<g>
</g>
<g>
</g>
<g>
</g>
<g>
</g>
<g>
</g>
<g>
</g>
<g>
</g>
<g>
</g>
<g>
</g>
<g>
</g>
</svg>
